<?xml version="1.0" standalone="no"?>
<!DOCTYPE svg PUBLIC "-//W3C//DTD SVG 20010904//EN"
 "http://www.w3.org/TR/2001/REC-SVG-20010904/DTD/svg10.dtd">
<svg version="1.0" xmlns="http://www.w3.org/2000/svg"
 width="200.000000pt" height="200.000000pt" viewBox="0 0 200.000000 200.000000"
 preserveAspectRatio="xMidYMid meet">
<metadata>
Created by potrace 1.14, written by Peter Selinger 2001-2017
</metadata>
<g transform="translate(0.000000,200.000000) scale(0.100000,-0.100000)"
fill="#000000" stroke="none">
<path d="M0 1000 l0 -1000 1000 0 1000 0 0 1000 0 1000 -1000 0 -1000 0 0
-1000z m608 243 l2 -253 125 0 125 0 0 255 0 256 58 -3 57 -3 3 -255 c2 -237
1 -258 -18 -302 -25 -58 -25 -68 0 -68 19 0 20 -7 20 -180 l0 -180 -60 0 -60
0 0 180 0 180 -125 0 -125 0 0 -180 0 -180 -60 0 -60 0 0 180 0 180 -53 0
c-30 0 -56 3 -59 6 -12 11 12 69 37 92 15 12 37 22 51 22 l24 0 0 255 0 256
58 -3 57 -3 3 -252z m949 225 c42 -40 55 -111 51 -286 -3 -145 -5 -160 -28
-202 l-25 -45 23 -24 c68 -74 69 -305 1 -377 -15 -16 -34 -24 -55 -24 l-33 0
19 43 c15 33 20 65 20 148 0 120 -10 161 -52 205 -27 29 -28 32 -12 45 37 30
44 73 44 257 0 177 -7 229 -36 263 -8 8 -14 19 -14 24 0 15 73 -5 97 -27z
m-214 -85 l-53 -4 -2 -197 -3 -197 -52 -3 -53 -3 0 205 0 206 108 -2 c59 -1
83 -3 55 -5z m-53 -633 l0 -120 60 0 c47 0 60 -3 60 -15 0 -12 -19 -15 -115
-15 l-115 0 0 135 0 135 55 0 55 0 0 -120z"/>
</g>
</svg>
